<?xml version="1.0" encoding="UTF-8" standalone="no"?>
<!-- Created with Inkscape (http://www.inkscape.org/) -->

<svg
   xmlns:dc="http://purl.org/dc/elements/1.1/"
   xmlns:cc="http://creativecommons.org/ns#"
   xmlns:rdf="http://www.w3.org/1999/02/22-rdf-syntax-ns#"
   xmlns:svg="http://www.w3.org/2000/svg"
   xmlns="http://www.w3.org/2000/svg"
   xmlns:sodipodi="http://sodipodi.sourceforge.net/DTD/sodipodi-0.dtd"
   xmlns:inkscape="http://www.inkscape.org/namespaces/inkscape"
   version="1.1"
   width="1024"
   height="1024"
   id="svg3093"
   inkscape:version="0.48.4 r9939"
   sodipodi:docname="belgian-puppet-usergroup-front-tshirt.svg"
   inkscape:export-filename="/home/jan/Projects/puppet-be-logo-180.png"
   inkscape:export-xdpi="21.09375"
   inkscape:export-ydpi="21.09375">
  <sodipodi:namedview
     pagecolor="#ffffff"
     bordercolor="#666666"
     borderopacity="1"
     objecttolerance="10"
     gridtolerance="10"
     guidetolerance="10"
     inkscape:pageopacity="0"
     inkscape:pageshadow="2"
     inkscape:window-width="1920"
     inkscape:window-height="1027"
     id="namedview3084"
     showgrid="false"
     width="2048px"
     inkscape:zoom="1"
     inkscape:cx="442.96018"
     inkscape:cy="714.15629"
     inkscape:window-x="0"
     inkscape:window-y="0"
     inkscape:window-maximized="1"
     inkscape:current-layer="svg3093"
     inkscape:snap-global="true"
     showguides="true"
     inkscape:guide-bbox="true" />
  <defs
     id="defs3095" />
  <metadata
     id="metadata3098">
    <rdf:RDF>
      <cc:Work
         rdf:about="">
        <dc:format>image/svg+xml</dc:format>
        <dc:type
           rdf:resource="http://purl.org/dc/dcmitype/StillImage" />
        <dc:title></dc:title>
      </cc:Work>
    </rdf:RDF>
  </metadata>
  <g
     id="g3029"
     transform="matrix(1.4075656,0,0,1.4075656,-244.86024,-408.40507)">
    <g
       transform="matrix(0.575759,0,0,0.575759,102.57867,443.76892)"
       id="g4079"
       style="fill:#ffcc00">
      <path
         inkscape:connector-curvature="0"
         id="path3029-6"
         style="fill:#ffcc00;fill-opacity:1;fill-rule:nonzero;stroke:none"
         d="m 667.4631,217.08841 c 7.1752,1.57119 16.3674,2.91642 24.2145,2.91642 9.8655,0 13.6771,-4.71085 13.6771,-14.57497 l 0,-38.56416 c 0,-8.97046 -3.3622,-13.90184 -13.4525,-13.90184 -8.9689,0 -18.6098,4.48523 -24.4391,9.86615 l 0,54.2584 z m 65.2457,-12.33048 c 0,24.2138 -10.762,38.56348 -36.0984,38.56348 -9.6409,0 -20.6268,-1.34523 -29.1473,-3.1383 l 0,45.06809 -27.3541,3.81142 0,-157.17461 21.7488,0 2.6903,9.1927 c 9.6415,-6.95006 20.8522,-11.43531 34.5293,-11.43531 21.9729,0 33.6314,13.00447 33.6314,37.89207 l 0,37.22046" />
      <path
         inkscape:connector-curvature="0"
         id="path3031-2"
         style="fill:#ffcc00;fill-opacity:1;fill-rule:nonzero;stroke:none"
         d="m 772.3943,135.91522 0,76.23214 c 0,5.8286 2.4664,8.74434 8.7437,8.74434 6.7271,0 18.6098,-4.03552 28.4759,-9.19235 l 0,-75.78413 27.3533,0 0,109.19231 -20.8519,0 -2.6905,-9.19235 c -13.677,6.72598 -30.9411,11.43344 -43.7216,11.43344 -18.1605,0 -24.663,-12.7785 -24.663,-32.28569 l 0,-79.14771 27.3541,0" />
      <path
         inkscape:connector-curvature="0"
         id="path3033-3"
         style="fill:#ffcc00;fill-opacity:1;fill-rule:nonzero;stroke:none"
         d="m 879.8059,217.08875 c 7.174,1.57119 16.3667,2.91625 24.2141,2.91625 9.8662,0 13.678,-4.71136 13.678,-14.57564 l 0,-38.56366 c 0,-8.97046 -3.364,-13.90184 -13.4523,-13.90184 -8.9705,0 -18.611,4.48523 -24.4398,9.86615 l 0,54.25874 z m 65.2462,-12.33252 c 0,24.21584 -10.7618,38.56535 -36.099,38.56535 -9.6405,0 -20.628,-1.34506 -29.1472,-3.1383 l 0,45.06741 -27.3541,3.81227 0,-157.17492 21.7493,0 2.6904,9.19268 c 9.6406,-6.95007 20.8519,-11.43532 34.5282,-11.43532 21.9732,0 33.6324,13.00447 33.6324,37.89207 l 0,37.21876" />
      <path
         inkscape:connector-curvature="0"
         id="path3035-8"
         style="fill:#ffcc00;fill-opacity:1;fill-rule:nonzero;stroke:none"
         d="m 985.8568,217.08875 c 7.1757,1.57119 16.3684,2.91625 24.2159,2.91625 9.8644,0 13.6762,-4.71136 13.6762,-14.57564 l 0,-38.56366 c 0,-8.97046 -3.3622,-13.90184 -13.4523,-13.90184 -8.9671,0 -18.6093,4.48523 -24.4398,9.86615 l 0,54.25874 z m 65.2462,-12.33252 c 0,24.21584 -10.7601,38.56535 -36.0973,38.56535 -9.6422,0 -20.6279,-1.34506 -29.1489,-3.1383 l 0,45.06741 -27.3541,3.81227 0,-157.17492 21.7493,0 2.6922,9.19268 c 9.6388,-6.95007 20.8502,-11.43532 34.5264,-11.43532 21.9732,0 33.6324,13.00447 33.6324,37.89207 l 0,37.21876" />
      <path
         inkscape:connector-curvature="0"
         id="path3037-7"
         style="fill:#ffcc00;fill-opacity:1;fill-rule:nonzero;stroke:none"
         d="m 1091.4599,174.93708 34.7555,0 0,-5.38092 c 0,-10.31399 -3.14,-17.48799 -16.594,-17.48799 -13.4506,0 -18.1615,7.174 -18.1615,17.48799 l 0,5.38092 z m 21.3015,45.96327 c 10.5379,0 21.5254,-1.56915 33.4068,-5.15683 l 4.2613,20.62765 c -12.331,4.70949 -27.1302,6.95041 -40.1346,6.95041 -34.3042,0 -46.1874,-15.91866 -46.1874,-42.15167 l 0,-28.92498 c 0,-23.09284 10.3123,-42.59953 45.2917,-42.59953 34.9776,0 42.8251,20.40238 42.8251,43.94645 l 0,23.31845 -60.7644,0 0,5.60484 c 0,13.22838 4.7109,18.38521 21.3015,18.38521" />
      <path
         inkscape:connector-curvature="0"
         id="path3039-8"
         style="fill:#ffcc00;fill-opacity:1;fill-rule:nonzero;stroke:none"
         d="m 1230.4733,239.06214 c -5.8305,2.46637 -17.0402,4.25944 -23.992,4.25944 -19.9545,0 -30.0446,-9.41678 -30.0446,-28.92329 l 0,-60.76096 -16.3666,0 0,-21.74929 16.3666,0 0,-27.13022 27.3542,-3.81178 0,30.942 28.0276,0 -1.7948,21.74929 -26.2328,0 0,57.17481 c 0,5.8286 2.6904,9.63884 9.8661,9.63884 4.0357,0 8.9688,-0.89586 13.6763,-2.24109 l 3.14,20.85225" />
    </g>
    <g
       transform="matrix(0.575759,0,0,0.575759,397.22298,335.23779)"
       id="g4107"
       style="fill:#000000">
      <g
         id="g4087"
         style="fill:#000000">
        <path
           d="m 37.857196,219.34034 c 4.920379,0.67046 10.511722,0.89395 16.326692,0.89395 17.89221,0 21.470665,-7.15679 21.470665,-19.90189 l 0,-33.5508 c 0,-8.72037 -3.804689,-13.4197 -13.866464,-13.4197 -7.604201,0 -17.221286,3.13194 -23.930893,6.26281 l 0,59.71563 z m 65.083014,-19.90591 c 0,26.39119 -8.051487,44.06014 -50.098249,44.06014 -10.958979,0 -28.627597,-1.11848 -42.270386,-3.80241 l 0,-151.857689 27.285621,-3.802375 0,52.558974 c 8.051532,-3.35453 20.352438,-6.48648 32.206038,-6.48648 23.483553,0 32.876976,14.31459 32.876976,37.34849 l 0,31.98135"
           id="path3045"
           style="fill:#000000;fill-opacity:1;fill-rule:nonzero;stroke:none"
           inkscape:connector-curvature="0" />
        <path
           sodipodi:nodetypes="cccc"
           d="m 223.05069,88.086596 29.09772,-4.0545 0,159.217904 -29.09772,0"
           style="fill:#000000;fill-opacity:1;fill-rule:nonzero;stroke:none;display:inline"
           id="path3041"
           inkscape:connector-curvature="0" />
        <path
           d="m 480.47473,201.10459 -20.60593,0 c -9.15938,0 -11.68097,2.5191 -11.68097,10.99369 0,7.78305 2.52159,11.21741 11.2229,11.21741 8.24355,0 15.80012,-2.74793 21.064,-5.72467 l 0,-16.48643 z m 27.93626,42.13295 -22.89571,0 -2.06382,-7.55627 c -10.07524,6.64096 -21.97985,9.84653 -33.20013,9.84653 -20.37967,0 -29.08128,-13.96836 -29.08128,-33.20265 0,-22.66985 9.84664,-31.37129 32.5161,-31.37129 l 26.78858,0 0,-11.67587 c 0,-12.36762 -3.4348,-16.71836 -21.29289,-16.71836 -10.07555,0 -21.06663,1.37605 -30.91299,3.43426 l -3.43481,-21.29565 c 10.53332,-3.20262 25.87538,-5.26402 38.2404,-5.26402 35.03212,0 45.33655,12.36257 45.33655,40.29934 l 0,73.50398"
           style="fill:#000000;fill-opacity:1;fill-rule:nonzero;stroke:none;display:inline"
           id="path3043"
           inkscape:connector-curvature="0" />
        <path
           d="m 591.0532,244.17269 0,-78.45733 c 0,-5.99877 -2.53834,-8.99962 -8.99887,-8.99962 -6.92351,0 -19.15307,4.15335 -29.30718,9.46062 l 0,77.99633 -28.15175,0 0,-112.37962 21.46053,0 2.76903,9.46062 c 14.0763,-6.92228 31.84429,-11.76713 44.99793,-11.76713 18.69056,0 25.38291,13.15146 25.38291,33.22804 l 0,81.45809 -28.1526,0"
           id="path3031-5"
           style="fill:#000000;fill-opacity:1;fill-rule:nonzero;stroke:none"
           inkscape:connector-curvature="0" />
        <path
           inkscape:connector-curvature="0"
           id="rect4523"
           d="m 376.53525,81.4321 0,33.34538 28.43601,0 0,-33.34538 -28.43601,0 z m 0,48.90229 0,113.34025 28.43601,0 0,-113.34025 -28.43601,0 z"
           style="fill:#000000;fill-opacity:1;fill-rule:nonzero;stroke:none" />
        <path
           inkscape:connector-curvature="0"
           id="path3975"
           style="fill:#000000;fill-opacity:1;fill-rule:nonzero;stroke:none"
           d="m 146.22149,174.78669 34.83193,0 0,-5.39275 c 0,-10.33668 -3.14691,-17.52645 -16.63049,-17.52645 -13.48018,0 -18.20144,7.18977 -18.20144,17.52645 l 0,5.39275 z m 21.34835,46.06436 c 10.56108,0 21.57273,-1.57261 33.48026,-5.16818 l 4.27068,20.67301 c -12.35812,4.71986 -27.18986,6.9657 -40.22287,6.9657 -34.37964,0 -46.28897,-15.95367 -46.28897,-42.24437 l 0,-28.98859 c 0,-23.14363 10.33497,-42.69322 45.3913,-42.69322 35.05452,0 42.91928,20.44725 42.91928,44.04309 l 0,23.36974 -60.89803,0 0,5.61717 c 0,13.25747 4.72126,18.42565 21.34835,18.42565" />
        <path
           sodipodi:nodetypes="sssscssccsscccssccssss"
           inkscape:connector-curvature="0"
           id="path3002-9"
           d="m 318.49321,129.91766 c -42.30554,0 -50.40941,17.78793 -50.40941,44.34157 l 0,32.17681 c 0,23.17566 9.45314,37.57364 33.08122,37.57364 11.76251,0 23.9262,-3.06657 32.0309,-6.38869 l 0,11.90199 c 0,13.44806 -4.77951,20.7899 -21.64568,20.7899 -10.71292,0 -21.87752,-1.60371 -33.95634,-5.25098 l -4.34655,20.97473 c 12.53582,4.78769 27.59133,7.05964 40.81171,7.05964 34.8739,0 46.96704,-16.1851 46.96704,-42.85379 l 0,-17.60991 0,-20.15791 0,-78.73546 c -13.72673,-2.70045 -31.50638,-3.82154 -42.53289,-3.82154 z m -1.37101,23.39601 c 5.85073,0 11.47317,0.22975 16.42379,0.90434 l 0,60.09449 c -6.75083,3.15012 -16.41585,6.30117 -24.0669,6.30117 -10.12369,0 -13.94425,-4.73263 -13.94425,-13.50668 l 0,-33.7521 c 0,-12.82354 3.58506,-20.04122 21.58736,-20.04122 z"
           style="fill:#000000;fill-opacity:1;fill-rule:nonzero;stroke:none" />
      </g>
    </g>
    <g
       transform="matrix(0.575759,0,0,0.575759,153.13613,460.1519)"
       id="g3247">
      <g
         style="fill:#d40000"
         id="g3255">
        <path
           d="m 814.8868,422.66397 c -12.0912,0 -28.6069,-2.79099 -39.0728,-6.51268 l 3.9538,-21.62883 c 9.5357,2.79005 22.0947,4.88381 33.7237,4.88381 12.5592,0 14.4196,-2.79099 14.4196,-11.3965 0,-6.97732 -1.3953,-10.46571 -19.769,-14.88465 -27.6739,-6.74177 -30.93,-13.71933 -30.93,-35.58155 0,-22.79278 9.9981,-32.79386 42.3263,-32.79386 10.4659,0 24.188,1.39356 33.9563,3.95408 l -2.7937,22.55748 c -8.6026,-1.62585 -22.3248,-3.25605 -31.1626,-3.25605 -12.3266,0 -14.4198,2.79119 -14.4198,9.77065 0,9.06833 0.6978,9.76554 16.0478,13.72175 31.6305,8.3709 34.654,12.55726 34.654,35.81494 0,21.86226 -6.7447,35.35141 -40.9336,35.35141"
           style="fill:#d40000;fill-opacity:1;fill-rule:nonzero;stroke:none;display:inline"
           id="path3047"
           inkscape:connector-curvature="0" />
        <path
           sodipodi:nodetypes="ccccccccc"
           inkscape:connector-curvature="0"
           id="rect3857"
           d="m 974.9276,305.34701 23.7325,0.0854 1.7928,12.1437 c 0,0 18.9044,-12.1437 29.9966,-14.70475 1.3922,20.11133 2.358,26.20817 2.358,26.20817 -16.8679,6.90398 -29.879,16.47615 -29.879,16.47615 l 0,73.07553 -28.0009,0 z"
           style="fill:#d40000;fill-opacity:1;fill-rule:nonzero;stroke:none" />
        <path
           inkscape:connector-curvature="0"
           id="path4014"
           style="fill:#d40000;fill-opacity:1;fill-rule:nonzero;stroke:none"
           d="m 697.441,311.27769 0,76.23214 c 0,5.8286 2.4664,8.74434 8.7437,8.74434 6.7271,0 18.6098,-4.03552 28.4759,-9.19235 l 0,-75.78413 27.3533,0 0,109.19231 -20.8519,0 -2.6905,-9.19235 c -13.677,6.72598 -30.9411,11.43344 -43.7216,11.43344 -18.1605,0 -24.663,-12.7785 -24.663,-32.28569 l 0,-79.14771 27.3541,0" />
        <path
           inkscape:connector-curvature="0"
           id="path4034"
           style="fill:#d40000;fill-opacity:1;fill-rule:nonzero;stroke:none"
           d="m 899.1269,350.29955 34.7555,0 0,-5.38092 c 0,-10.31399 -3.14,-17.48799 -16.594,-17.48799 -13.4506,0 -18.1615,7.174 -18.1615,17.48799 l 0,5.38092 z m 21.3015,45.96327 c 10.5379,0 21.5254,-1.56915 33.4068,-5.15683 l 4.2613,20.62765 c -12.331,4.70949 -27.1302,6.95041 -40.1346,6.95041 -34.3042,0 -46.1874,-15.91866 -46.1874,-42.15167 l 0,-28.92498 c 0,-23.09284 10.3123,-42.59953 45.2917,-42.59953 34.9776,0 42.8251,20.40238 42.8251,43.94645 l 0,23.31845 -60.7644,0 0,5.60484 c 0,13.22838 4.7109,18.38521 21.3015,18.38521" />
        <path
           inkscape:connector-curvature="0"
           id="path3253"
           style="fill:#d40000;fill-opacity:1;fill-rule:nonzero;stroke:none;display:inline"
           d="m 1081.4661,422.66397 c -12.0912,0 -28.6069,-2.79099 -39.0728,-6.51268 l 3.9538,-21.62883 c 9.5357,2.79005 22.0947,4.88381 33.7237,4.88381 12.5592,0 14.4196,-2.79099 14.4196,-11.3965 0,-6.97732 -1.3953,-10.46571 -19.769,-14.88465 -27.6739,-6.74177 -30.93,-13.71933 -30.93,-35.58155 0,-22.79278 9.9981,-32.79386 42.3263,-32.79386 10.4659,0 24.188,1.39356 33.9563,3.95408 l -2.7937,22.55748 c -8.6026,-1.62585 -22.3248,-3.25605 -31.1626,-3.25605 -12.3266,0 -14.4198,2.79119 -14.4198,9.77065 0,9.06833 0.6978,9.76554 16.0478,13.72175 31.6305,8.3709 34.654,12.55726 34.654,35.81494 0,21.86226 -6.7447,35.35141 -40.9336,35.35141" />
      </g>
    </g>
    <g
       transform="matrix(0.575759,0,0,0.575759,3.6622994,563.22673)"
       id="g3240">
      <path
         style="fill:#d40000;fill-opacity:1;stroke:none"
         d="m 1280.4926,304.40032 c -13.3362,0.0433 -27.9818,2.50301 -37.7367,12.37848 -8.0662,8.0553 -10.3228,19.95233 -9.8489,30.95657 0.1118,11.93649 -0.2534,23.90154 0.1866,35.82917 0.6749,11.34079 6.5743,22.58939 16.6498,28.24036 9.2317,5.41094 20.213,6.86481 30.7492,6.92531 0.089,-7e-5 0.1802,2.9e-4 0.2695,0 13.3363,-0.0433 27.9819,-2.50301 37.7368,-12.37848 8.0662,-8.05529 10.3228,-19.95232 9.8489,-30.95657 -0.1119,-11.93649 0.2533,-23.90154 -0.1866,-35.82917 -0.675,-11.34078 -6.5743,-22.58939 -16.6498,-28.24035 -9.2317,-5.41095 -20.213,-6.86481 -30.7493,-6.92532 -0.09,-5.2e-4 -0.1796,3.1e-4 -0.2695,0 z m 0,22.72499 0,0.35248 c 7.391,-0.18053 16.1334,2.25768 19.2209,9.72447 2.2645,5.47579 1.1725,11.49278 1.4307,17.25108 -0.083,8.86829 0.1759,17.76409 -0.1452,26.62307 -0.4893,7.02534 -6.3409,12.65521 -13.1249,13.82989 -1.8642,1.15832 -5.8687,-0.19133 -7.112,1.09893 l 0,-0.35249 c -7.3909,0.18054 -16.1333,-2.25767 -19.2208,-9.72447 -2.2645,-5.47578 -1.1725,-11.49277 -1.4307,-17.25108 0.083,-8.86829 -0.1759,-17.76408 0.1452,-26.62306 0.4894,-7.02535 6.3409,-12.65521 13.1249,-13.8299 1.8642,-1.15831 5.8687,0.19133 7.1119,-1.09892 z"
         id="path4535"
         inkscape:connector-curvature="0" />
      <path
         sodipodi:nodetypes="sssscssccsscccssccssss"
         inkscape:connector-curvature="0"
         id="path4071"
         d="m 1097.8961,305.28013 c -42.3055,0 -50.4094,17.78793 -50.4094,44.34157 l 0,32.17681 c 0,23.17566 9.4531,37.57364 33.0812,37.57364 11.7625,0 23.9262,-3.06657 32.0309,-6.38869 l 0,11.90199 c 0,13.44806 -4.7795,20.7899 -21.6457,20.7899 -10.7129,0 -21.8775,-1.60371 -33.9563,-5.25098 l -4.3466,20.97473 c 12.5359,4.78769 27.5914,7.05964 40.8118,7.05964 34.8739,0 46.967,-16.1851 46.967,-42.85379 l 0,-17.60991 0,-20.15791 0,-78.73546 c -13.7267,-2.70045 -31.5064,-3.82154 -42.5329,-3.82154 z m -1.371,23.39601 c 5.8507,0 11.4732,0.22975 16.4238,0.90434 l 0,60.09449 c -6.7508,3.15012 -16.4159,6.30117 -24.0669,6.30117 -10.1237,0 -13.9443,-4.73263 -13.9443,-13.50668 l 0,-33.7521 c 0,-12.82354 3.5851,-20.04122 21.5874,-20.04122 z"
         style="fill:#d40000;fill-opacity:1;fill-rule:nonzero;stroke:none" />
      <path
         sodipodi:nodetypes="ccccccccc"
         inkscape:connector-curvature="0"
         id="path4073"
         d="m 1162.9276,305.34701 23.7325,0.0854 1.7928,12.1437 c 0,0 18.9044,-12.1437 29.9966,-14.70475 1.3922,20.11133 2.358,26.20817 2.358,26.20817 -16.8679,6.90398 -29.879,16.47615 -29.879,16.47615 l 0,73.07553 -28.0009,0 z"
         style="fill:#d40000;fill-opacity:1;fill-rule:nonzero;stroke:none" />
      <path
         d="m 1369.7972,309.27769 0,76.23214 c 0,5.8286 2.4664,8.74434 8.7437,8.74434 6.7271,0 18.6098,-4.03552 28.4759,-9.19235 l 0,-75.78413 27.3533,0 0,109.19231 -20.8519,0 -2.6905,-9.19235 c -13.677,6.72598 -30.9411,11.43344 -43.7216,11.43344 -18.1605,0 -24.663,-12.7785 -24.663,-32.28569 l 0,-79.14771 27.3541,0"
         style="fill:#d40000;fill-opacity:1;fill-rule:nonzero;stroke:none"
         id="path4075"
         inkscape:connector-curvature="0" />
      <path
         d="m 1481.2088,392.45122 c 7.174,1.57119 16.3667,2.91625 24.2141,2.91625 9.8662,0 13.678,-4.71136 13.678,-14.57564 l 0,-38.56366 c 0,-8.97046 -3.364,-13.90184 -13.4523,-13.90184 -8.9705,0 -18.611,4.48523 -24.4398,9.86615 l 0,54.25874 z m 65.2462,-12.33252 c 0,24.21584 -10.7618,38.56535 -36.099,38.56535 -9.6405,0 -20.628,-1.34506 -29.1472,-3.1383 l 0,45.06741 -27.3541,3.81227 0,-157.17492 21.7493,0 2.6904,9.19268 c 9.6406,-6.95007 20.8519,-11.43532 34.5282,-11.43532 21.9732,0 33.6324,13.00447 33.6324,37.89207 l 0,37.21876"
         style="fill:#d40000;fill-opacity:1;fill-rule:nonzero;stroke:none"
         id="path4077"
         inkscape:connector-curvature="0" />
    </g>
    <g
       id="g3854"
       transform="matrix(1.0446772,-0.29304183,-0.29304183,-1.0446772,754.50432,699.00935)">
      <path
         style="fill:#ffcc00;fill-opacity:1;fill-rule:nonzero;stroke:none"
         id="path3017"
         d="m -394.06249,30.976544 c 0,0 -16.1155,-11.948362 -27.36636,-8.653448 0,0 55.61045,-55.792044 113.66147,-2.202571 0,0 19.44068,22.507221 18.52581,38.87861 l -7.61339,2.070499 c 0,0 -10.61526,-52.722752 -66.32063,-46.193457 0,0 -14.09866,3.138079 -30.8869,16.100367"
         inkscape:connector-curvature="0" />
      <path
         style="fill:#000000;fill-opacity:1;fill-rule:nonzero;stroke:none"
         id="path3019"
         d="m -410.78332,105.2999 c 0,0 -1.82011,19.97997 6.8636,27.863 0,0 -76.60228,-18.39098 -61.0983,-95.866174 0,0 9.08544,-28.3293821 23.5294,-36.0734619 l 5.74512,5.4121887 c 0,0 -39.47265,36.5260832 -4.88802,80.6834342 0,0 10.02094,10.402023 29.8482,17.981013"
         inkscape:connector-curvature="0" />
      <path
         style="fill:#d40000;fill-opacity:1;fill-rule:nonzero;stroke:none"
         id="path3021"
         d="m -337.19599,83.611249 c 0,0 18.49004,-7.812867 21.37498,-19.183416 0,0 19.8369,76.243897 -55.79204,99.048277 0,0 -29.27452,5.32277 -42.91092,-3.78468 l 2.08013,-7.612 c 0,0 50.80358,17.61919 73.46764,-33.67829 0,0 4.44916,-13.73133 1.78021,-34.789891"
         inkscape:connector-curvature="0" />
      <path
         style="fill:#d40000;fill-opacity:1;fill-rule:nonzero;stroke:none"
         id="path3023"
         d="m -364.81823,111.34768 c -6.59534,-7.3685 -17.9026,-7.99859 -25.2711,-1.41564 -7.3685,6.58845 -8.01098,17.91635 -1.41977,25.2766 6.59533,7.35887 17.9081,7.98896 25.27522,1.41564 7.37263,-6.58982 7.99447,-17.90122 1.41565,-25.2766"
         inkscape:connector-curvature="0" />
      <path
         style="fill:#000000;fill-opacity:1;fill-rule:nonzero;stroke:none"
         id="path3025"
         d="m -411.79862,38.398699 c -6.5857,-7.379506 -17.89434,-8.015102 -25.25871,-1.425273 -7.37263,6.598082 -8.0041,17.899844 -1.41152,25.26972 6.5802,7.367126 17.89434,8.015103 25.26972,1.415644 7.35887,-6.582949 7.98621,-17.90122 1.40051,-25.260091"
         inkscape:connector-curvature="0" />
      <path
         style="fill:#ffcc00;fill-opacity:1;fill-rule:nonzero;stroke:none"
         id="path3027"
         d="m -326.99345,34.92769 c -6.58157,-7.358871 -17.88746,-8.005472 -25.25046,-1.425274 -7.37813,6.599458 -8.01097,17.91085 -1.42527,25.277975 6.5912,7.369877 17.90122,8.005472 25.27797,1.415644 7.36851,-6.589828 7.98346,-17.91085 1.39776,-25.268345"
         inkscape:connector-curvature="0" />
      <path
         style="fill:#d40000;stroke:none"
         id="path3838"
         d="m -378.15,445.6 c -21.39128,0.0219 -42.89029,-0.67542 -46.5,-5.925 -3.77825,-5.49466 -2.975,-18.1 -2.975,-18.1 l 5.225,-0.175 c 0,0 -1.07388,-4.54527 -2.25,-10.075 l 23.275,-23.275 5.05,0 c -0.013,0.05 -0.0118,0.0999 -0.025,0.15 -5.31125,20.22424 0.6,33.55 0.6,33.55 0,0 11.65831,-0.0688 14.675,-0.075 0.0666,-1.4e-4 20.525,0.075 20.525,0.075 0,0 5.91125,-13.32576 0.6,-33.55 -3.95574,-15.06268 -0.93758,-25.74726 0.375,-40.8 1.91662,-21.97988 15.24352,-41.8963 31.875,-58.35 16.96282,-16.78152 13.5977,-41.52673 17.625,-62.575 2.79347,-14.59978 10.14687,-28.07156 19.875,-40.325 15.86495,-19.9833 12.1,-33.85555 12.1,-57.125 0,-70.83192 -0.91482,-139.999 -1.025,-211.1 -0.004,-2.304536 0.22086,-7.375136 -2.825,-12.275 l 27.15,0 c 1.06681,5.403008 1.65,11.368648 1.65,17.875 0,32.923096 -0.9,220.85 -0.9,220.85 0,0 0.99962,27.15235 -6.35,39.325 -11.79453,19.53446 -19.69749,25.6999 -23.675,44.975 -4.44494,21.54032 -3.90281,32.25521 -11.175,54.525 -6.56272,20.09718 -31.60035,32.21292 -36.15,55.5 -4.54966,23.28707 -4.1,46.175 -4.1,46.175 0,0 5.91508,2.61 6.825,6.625 0.90994,4.01502 -5.225,29.9 -5.225,29.9 l 5.225,0.175 c 0,0 0.80325,12.60534 -2.975,18.1 -3.60971,5.24958 -25.10872,5.90306 -46.5,5.925 z"
         inkscape:connector-curvature="0" />
      <path
         style="fill:#000000;stroke:none"
         id="path3836"
         d="m -467.5,256.825 c -1.43038,-8.55497 -2.39775,-16.87208 -4.725,-28.15 -3.97751,-19.2751 -11.88047,-25.44054 -23.675,-44.975 -7.34962,-12.17265 -6.35,-39.325 -6.35,-39.325 0,0 -0.9,-187.926904 -0.9,-220.85 0,-21.023504 5.94682,-36.46329 15.45,-45.1 l 20.55,20.525 c -10.51586,6.027552 -10.0197,15.54816 -10.025,18.975 -0.11018,71.101 -1.025,140.26808 -1.025,211.1 0,23.26945 -3.76495,37.1417 12.1,57.125 9.72813,12.25344 17.08153,25.72522 19.875,40.325 1.85802,9.71072 2.14182,20.21056 3.575,30.35 l -24.85,0 z"
         inkscape:connector-curvature="0" />
      <path
         style="fill:#ffcc00;stroke:none"
         id="path3896"
         d="m -454.95,-105.175 -22.575,-22.6 c 2.8265,-1.00898 5.82211,-1.57453 8.95,-1.7 l 90.425,0 90.425,0 c 12.98842,0.52101 23.66925,8.81958 29.575,23.575 l -48.775,0 c -2.54486,-0.23391 -5.29285,-0.375 -8.325,-0.375 -18.58334,0 -39.1361,-0.0549 -62.9,-0.1 -23.7639,0.0451 -44.31666,0.1 -62.9,0.1 -5.40761,0 -9.98919,0.40007 -13.9,1.1 z"
         inkscape:connector-curvature="0" />
    </g>
    <rect
       y="662"
       x="816"
       height="16"
       width="39"
       id="rect3262"
       style="fill:#d40000;fill-opacity:1;fill-rule:nonzero;stroke:none" />
  </g>
</svg>
