<?xml version="1.0" encoding="UTF-8" standalone="no"?>
<!-- Created with Inkscape (http://www.inkscape.org/) -->

<svg
   xmlns:dc="http://purl.org/dc/elements/1.1/"
   xmlns:cc="http://creativecommons.org/ns#"
   xmlns:rdf="http://www.w3.org/1999/02/22-rdf-syntax-ns#"
   xmlns:svg="http://www.w3.org/2000/svg"
   xmlns="http://www.w3.org/2000/svg"
   xmlns:sodipodi="http://sodipodi.sourceforge.net/DTD/sodipodi-0.dtd"
   xmlns:inkscape="http://www.inkscape.org/namespaces/inkscape"
   version="1.1"
   width="2048"
   height="768"
   id="svg3093"
   inkscape:version="0.48.4 r9939"
   sodipodi:docname="teeeexttt.svg">
  <sodipodi:namedview
     pagecolor="#ffffff"
     bordercolor="#666666"
     borderopacity="1"
     objecttolerance="10"
     gridtolerance="10"
     guidetolerance="10"
     inkscape:pageopacity="0"
     inkscape:pageshadow="2"
     inkscape:window-width="1920"
     inkscape:window-height="1027"
     id="namedview3084"
     showgrid="false"
     width="2048px"
     inkscape:zoom="0.35355339"
     inkscape:cx="1291.8811"
     inkscape:cy="531.61014"
     inkscape:window-x="0"
     inkscape:window-y="0"
     inkscape:window-maximized="1"
     inkscape:current-layer="svg3093"
     inkscape:snap-global="true"
     showguides="true"
     inkscape:guide-bbox="true" />
  <defs
     id="defs3095" />
  <metadata
     id="metadata3098">
    <rdf:RDF>
      <cc:Work
         rdf:about="">
        <dc:format>image/svg+xml</dc:format>
        <dc:type
           rdf:resource="http://purl.org/dc/dcmitype/StillImage" />
        <dc:title />
      </cc:Work>
    </rdf:RDF>
  </metadata>
  <g
     id="g4117"
     transform="translate(392.2231,16.970563)">
    <g
       transform="translate(20,0)"
       id="g4079"
       style="fill:#ffcc00">
      <path
         inkscape:connector-curvature="0"
         id="path3029-6"
         style="fill:#ffcc00;fill-opacity:1;fill-rule:nonzero;stroke:none"
         d="m 667.4631,217.08841 c 7.1752,1.57119 16.3674,2.91642 24.2145,2.91642 9.8655,0 13.6771,-4.71085 13.6771,-14.57497 l 0,-38.56416 c 0,-8.97046 -3.3622,-13.90184 -13.4525,-13.90184 -8.9689,0 -18.6098,4.48523 -24.4391,9.86615 l 0,54.2584 z m 65.2457,-12.33048 c 0,24.2138 -10.762,38.56348 -36.0984,38.56348 -9.6409,0 -20.6268,-1.34523 -29.1473,-3.1383 l 0,45.06809 -27.3541,3.81142 0,-157.17461 21.7488,0 2.6903,9.1927 c 9.6415,-6.95006 20.8522,-11.43531 34.5293,-11.43531 21.9729,0 33.6314,13.00447 33.6314,37.89207 l 0,37.22046" />
      <path
         inkscape:connector-curvature="0"
         id="path3031-2"
         style="fill:#ffcc00;fill-opacity:1;fill-rule:nonzero;stroke:none"
         d="m 772.3943,135.91522 0,76.23214 c 0,5.8286 2.4664,8.74434 8.7437,8.74434 6.7271,0 18.6098,-4.03552 28.4759,-9.19235 l 0,-75.78413 27.3533,0 0,109.19231 -20.8519,0 -2.6905,-9.19235 c -13.677,6.72598 -30.9411,11.43344 -43.7216,11.43344 -18.1605,0 -24.663,-12.7785 -24.663,-32.28569 l 0,-79.14771 27.3541,0" />
      <path
         inkscape:connector-curvature="0"
         id="path3033-3"
         style="fill:#ffcc00;fill-opacity:1;fill-rule:nonzero;stroke:none"
         d="m 879.8059,217.08875 c 7.174,1.57119 16.3667,2.91625 24.2141,2.91625 9.8662,0 13.678,-4.71136 13.678,-14.57564 l 0,-38.56366 c 0,-8.97046 -3.364,-13.90184 -13.4523,-13.90184 -8.9705,0 -18.611,4.48523 -24.4398,9.86615 l 0,54.25874 z m 65.2462,-12.33252 c 0,24.21584 -10.7618,38.56535 -36.099,38.56535 -9.6405,0 -20.628,-1.34506 -29.1472,-3.1383 l 0,45.06741 -27.3541,3.81227 0,-157.17492 21.7493,0 2.6904,9.19268 c 9.6406,-6.95007 20.8519,-11.43532 34.5282,-11.43532 21.9732,0 33.6324,13.00447 33.6324,37.89207 l 0,37.21876" />
      <path
         inkscape:connector-curvature="0"
         id="path3035-8"
         style="fill:#ffcc00;fill-opacity:1;fill-rule:nonzero;stroke:none"
         d="m 985.8568,217.08875 c 7.1757,1.57119 16.3684,2.91625 24.2159,2.91625 9.8644,0 13.6762,-4.71136 13.6762,-14.57564 l 0,-38.56366 c 0,-8.97046 -3.3622,-13.90184 -13.4523,-13.90184 -8.9671,0 -18.6093,4.48523 -24.4398,9.86615 l 0,54.25874 z m 65.2462,-12.33252 c 0,24.21584 -10.7601,38.56535 -36.0973,38.56535 -9.6422,0 -20.6279,-1.34506 -29.1489,-3.1383 l 0,45.06741 -27.3541,3.81227 0,-157.17492 21.7493,0 2.6922,9.19268 c 9.6388,-6.95007 20.8502,-11.43532 34.5264,-11.43532 21.9732,0 33.6324,13.00447 33.6324,37.89207 l 0,37.21876" />
      <path
         inkscape:connector-curvature="0"
         id="path3037-7"
         style="fill:#ffcc00;fill-opacity:1;fill-rule:nonzero;stroke:none"
         d="m 1091.4599,174.93708 34.7555,0 0,-5.38092 c 0,-10.31399 -3.14,-17.48799 -16.594,-17.48799 -13.4506,0 -18.1615,7.174 -18.1615,17.48799 l 0,5.38092 z m 21.3015,45.96327 c 10.5379,0 21.5254,-1.56915 33.4068,-5.15683 l 4.2613,20.62765 c -12.331,4.70949 -27.1302,6.95041 -40.1346,6.95041 -34.3042,0 -46.1874,-15.91866 -46.1874,-42.15167 l 0,-28.92498 c 0,-23.09284 10.3123,-42.59953 45.2917,-42.59953 34.9776,0 42.8251,20.40238 42.8251,43.94645 l 0,23.31845 -60.7644,0 0,5.60484 c 0,13.22838 4.7109,18.38521 21.3015,18.38521" />
      <path
         inkscape:connector-curvature="0"
         id="path3039-8"
         style="fill:#ffcc00;fill-opacity:1;fill-rule:nonzero;stroke:none"
         d="m 1230.4733,239.06214 c -5.8305,2.46637 -17.0402,4.25944 -23.992,4.25944 -19.9545,0 -30.0446,-9.41678 -30.0446,-28.92329 l 0,-60.76096 -16.3666,0 0,-21.74929 16.3666,0 0,-27.13022 27.3542,-3.81178 0,30.942 28.0276,0 -1.7948,21.74929 -26.2328,0 0,57.17481 c 0,5.8286 2.6904,9.63884 9.8661,9.63884 4.0357,0 8.9688,-0.89586 13.6763,-2.24109 l 3.14,20.85225" />
    </g>
    <g
       id="g4107"
       style="fill:#000000">
      <g
         id="g4087"
         style="fill:#000000">
        <path
           d="m 37.857196,219.34034 c 4.920379,0.67046 10.511722,0.89395 16.326692,0.89395 17.89221,0 21.470665,-7.15679 21.470665,-19.90189 l 0,-33.5508 c 0,-8.72037 -3.804689,-13.4197 -13.866464,-13.4197 -7.604201,0 -17.221286,3.13194 -23.930893,6.26281 l 0,59.71563 z m 65.083014,-19.90591 c 0,26.39119 -8.051487,44.06014 -50.098249,44.06014 -10.958979,0 -28.627597,-1.11848 -42.270386,-3.80241 l 0,-151.857689 27.285621,-3.802375 0,52.558974 c 8.051532,-3.35453 20.352438,-6.48648 32.206038,-6.48648 23.483553,0 32.876976,14.31459 32.876976,37.34849 l 0,31.98135"
           id="path3045"
           style="fill:#000000;fill-opacity:1;fill-rule:nonzero;stroke:none"
           inkscape:connector-curvature="0" />
        <path
           sodipodi:nodetypes="cccc"
           d="m 223.05069,88.086596 29.09772,-4.0545 0,159.217904 -29.09772,0"
           style="fill:#000000;fill-opacity:1;fill-rule:nonzero;stroke:none;display:inline"
           id="path3041"
           inkscape:connector-curvature="0" />
        <path
           d="m 480.47473,201.10459 -20.60593,0 c -9.15938,0 -11.68097,2.5191 -11.68097,10.99369 0,7.78305 2.52159,11.21741 11.2229,11.21741 8.24355,0 15.80012,-2.74793 21.064,-5.72467 l 0,-16.48643 z m 27.93626,42.13295 -22.89571,0 -2.06382,-7.55627 c -10.07524,6.64096 -21.97985,9.84653 -33.20013,9.84653 -20.37967,0 -29.08128,-13.96836 -29.08128,-33.20265 0,-22.66985 9.84664,-31.37129 32.5161,-31.37129 l 26.78858,0 0,-11.67587 c 0,-12.36762 -3.4348,-16.71836 -21.29289,-16.71836 -10.07555,0 -21.06663,1.37605 -30.91299,3.43426 l -3.43481,-21.29565 c 10.53332,-3.20262 25.87538,-5.26402 38.2404,-5.26402 35.03212,0 45.33655,12.36257 45.33655,40.29934 l 0,73.50398"
           style="fill:#000000;fill-opacity:1;fill-rule:nonzero;stroke:none;display:inline"
           id="path3043"
           inkscape:connector-curvature="0" />
        <path
           d="m 591.0532,244.17269 0,-78.45733 c 0,-5.99877 -2.53834,-8.99962 -8.99887,-8.99962 -6.92351,0 -19.15307,4.15335 -29.30718,9.46062 l 0,77.99633 -28.15175,0 0,-112.37962 21.46053,0 2.76903,9.46062 c 14.0763,-6.92228 31.84429,-11.76713 44.99793,-11.76713 18.69056,0 25.38291,13.15146 25.38291,33.22804 l 0,81.45809 -28.1526,0"
           id="path3031-5"
           style="fill:#000000;fill-opacity:1;fill-rule:nonzero;stroke:none"
           inkscape:connector-curvature="0" />
        <path
           inkscape:connector-curvature="0"
           id="rect4523"
           d="m 376.53525,81.4321 0,33.34538 28.43601,0 0,-33.34538 -28.43601,0 z m 0,48.90229 0,113.34025 28.43601,0 0,-113.34025 -28.43601,0 z"
           style="fill:#000000;fill-opacity:1;fill-rule:nonzero;stroke:none" />
        <path
           inkscape:connector-curvature="0"
           id="path3975"
           style="fill:#000000;fill-opacity:1;fill-rule:nonzero;stroke:none"
           d="m 146.22149,174.78669 34.83193,0 0,-5.39275 c 0,-10.33668 -3.14691,-17.52645 -16.63049,-17.52645 -13.48018,0 -18.20144,7.18977 -18.20144,17.52645 l 0,5.39275 z m 21.34835,46.06436 c 10.56108,0 21.57273,-1.57261 33.48026,-5.16818 l 4.27068,20.67301 c -12.35812,4.71986 -27.18986,6.9657 -40.22287,6.9657 -34.37964,0 -46.28897,-15.95367 -46.28897,-42.24437 l 0,-28.98859 c 0,-23.14363 10.33497,-42.69322 45.3913,-42.69322 35.05452,0 42.91928,20.44725 42.91928,44.04309 l 0,23.36974 -60.89803,0 0,5.61717 c 0,13.25747 4.72126,18.42565 21.34835,18.42565" />
        <path
           sodipodi:nodetypes="sssscssccsscccssccssss"
           inkscape:connector-curvature="0"
           id="path3002-9"
           d="m 318.49321,129.91766 c -42.30554,0 -50.40941,17.78793 -50.40941,44.34157 l 0,32.17681 c 0,23.17566 9.45314,37.57364 33.08122,37.57364 11.76251,0 23.9262,-3.06657 32.0309,-6.38869 l 0,11.90199 c 0,13.44806 -4.77951,20.7899 -21.64568,20.7899 -10.71292,0 -21.87752,-1.60371 -33.95634,-5.25098 l -4.34655,20.97473 c 12.53582,4.78769 27.59133,7.05964 40.81171,7.05964 34.8739,0 46.96704,-16.1851 46.96704,-42.85379 l 0,-17.60991 0,-20.15791 0,-78.73546 c -13.72673,-2.70045 -31.50638,-3.82154 -42.53289,-3.82154 z m -1.37101,23.39601 c 5.85073,0 11.47317,0.22975 16.42379,0.90434 l 0,60.09449 c -6.75083,3.15012 -16.41585,6.30117 -24.0669,6.30117 -10.12369,0 -13.94425,-4.73263 -13.94425,-13.50668 l 0,-33.7521 c 0,-12.82354 3.58506,-20.04122 21.58736,-20.04122 z"
           style="fill:#000000;fill-opacity:1;fill-rule:nonzero;stroke:none" />
      </g>
    </g>
  </g>
  <g
     id="g4096"
     transform="translate(-701.44991,186.67619)"
     style="fill:#d40000">
    <path
       d="m 1431.4839,247.3015 c -12.0912,0 -28.6069,-2.79099 -39.0728,-6.51268 l 3.9538,-21.62883 c 9.5357,2.79005 22.0947,4.88381 33.7237,4.88381 12.5592,0 14.4196,-2.79099 14.4196,-11.3965 0,-6.97732 -1.3953,-10.46571 -19.769,-14.88465 -27.6739,-6.74177 -30.93,-13.71933 -30.93,-35.58155 0,-22.79278 9.9981,-32.79386 42.3263,-32.79386 10.4659,0 24.188,1.39356 33.9563,3.95408 l -2.7937,22.55748 c -8.6026,-1.62585 -22.3248,-3.25605 -31.1626,-3.25605 -12.3266,0 -14.4198,2.79119 -14.4198,9.77065 0,9.06833 0.6978,9.76554 16.0478,13.72175 31.6305,8.3709 34.654,12.55726 34.654,35.81494 0,21.86226 -6.7447,35.35141 -40.9336,35.35141"
       style="fill:#d40000;fill-opacity:1;fill-rule:nonzero;stroke:none;display:inline"
       id="path3047"
       inkscape:connector-curvature="0" />
    <path
       inkscape:connector-curvature="0"
       id="path4535"
       d="m 1897.0897,129.03785 c -13.3362,0.0433 -27.9818,2.50301 -37.7367,12.37848 -8.0662,8.0553 -10.3228,19.95233 -9.8489,30.95657 0.1118,11.93649 -0.2534,23.90154 0.1866,35.82917 0.6749,11.34079 6.5743,22.58939 16.6498,28.24036 9.2317,5.41094 20.213,6.86481 30.7492,6.92531 0.089,-7e-5 0.1802,2.9e-4 0.2695,0 13.3363,-0.0433 27.9819,-2.50301 37.7368,-12.37848 8.0662,-8.05529 10.3228,-19.95232 9.8489,-30.95657 -0.1119,-11.93649 0.2533,-23.90154 -0.1866,-35.82917 -0.675,-11.34078 -6.5743,-22.58939 -16.6498,-28.24035 -9.2317,-5.41095 -20.213,-6.86481 -30.7493,-6.92532 -0.09,-5.2e-4 -0.1796,3.1e-4 -0.2695,0 z m 0,22.72499 0,0.35248 c 7.391,-0.18053 16.1334,2.25768 19.2209,9.72447 2.2645,5.47579 1.1725,11.49278 1.4307,17.25108 -0.083,8.86829 0.1759,17.76409 -0.1452,26.62307 -0.4893,7.02534 -6.3409,12.65521 -13.1249,13.82989 -1.8642,1.15832 -5.8687,-0.19133 -7.112,1.09893 l 0,-0.35249 c -7.3909,0.18054 -16.1333,-2.25767 -19.2208,-9.72447 -2.2645,-5.47578 -1.1725,-11.49277 -1.4307,-17.25108 0.083,-8.86829 -0.1759,-17.76408 0.1452,-26.62306 0.4894,-7.02535 6.3409,-12.65521 13.1249,-13.8299 1.8642,-1.15831 5.8687,0.19133 7.1119,-1.09892 z"
       style="fill:#d40000;fill-opacity:1;stroke:none" />
    <path
       sodipodi:nodetypes="ccccccccc"
       inkscape:connector-curvature="0"
       id="rect3857"
       d="m 1591.5247,129.98454 23.7325,0.0854 1.7928,12.1437 c 0,0 18.9044,-12.1437 29.9966,-14.70475 1.3922,20.11133 2.358,26.20817 2.358,26.20817 -16.8679,6.90398 -29.879,16.47615 -29.879,16.47615 l 0,73.07553 -28.0009,0 z"
       style="fill:#d40000;fill-opacity:1;fill-rule:nonzero;stroke:none" />
    <path
       inkscape:connector-curvature="0"
       id="path4014"
       style="fill:#d40000;fill-opacity:1;fill-rule:nonzero;stroke:none"
       d="m 1314.0381,135.91522 0,76.23214 c 0,5.8286 2.4664,8.74434 8.7437,8.74434 6.7271,0 18.6098,-4.03552 28.4759,-9.19235 l 0,-75.78413 27.3533,0 0,109.19231 -20.8519,0 -2.6905,-9.19235 c -13.677,6.72598 -30.9411,11.43344 -43.7216,11.43344 -18.1605,0 -24.663,-12.7785 -24.663,-32.28569 l 0,-79.14771 27.3541,0" />
    <path
       inkscape:connector-curvature="0"
       id="path4034"
       style="fill:#d40000;fill-opacity:1;fill-rule:nonzero;stroke:none"
       d="m 1515.724,174.93708 34.7555,0 0,-5.38092 c 0,-10.31399 -3.14,-17.48799 -16.594,-17.48799 -13.4506,0 -18.1615,7.174 -18.1615,17.48799 l 0,5.38092 z m 21.3015,45.96327 c 10.5379,0 21.5254,-1.56915 33.4068,-5.15683 l 4.2613,20.62765 c -12.331,4.70949 -27.1302,6.95041 -40.1346,6.95041 -34.3042,0 -46.1874,-15.91866 -46.1874,-42.15167 l 0,-28.92498 c 0,-23.09284 10.3123,-42.59953 45.2917,-42.59953 34.9776,0 42.8251,20.40238 42.8251,43.94645 l 0,23.31845 -60.7644,0 0,5.60484 c 0,13.22838 4.7109,18.38521 21.3015,18.38521" />
    <path
       style="fill:#d40000;fill-opacity:1;fill-rule:nonzero;stroke:none"
       d="m 1714.4932,129.91766 c -42.3055,0 -50.4094,17.78793 -50.4094,44.34157 l 0,32.17681 c 0,23.17566 9.4531,37.57364 33.0812,37.57364 11.7625,0 23.9262,-3.06657 32.0309,-6.38869 l 0,11.90199 c 0,13.44806 -4.7795,20.7899 -21.6457,20.7899 -10.7129,0 -21.8775,-1.60371 -33.9563,-5.25098 l -4.3466,20.97473 c 12.5359,4.78769 27.5914,7.05964 40.8118,7.05964 34.8739,0 46.967,-16.1851 46.967,-42.85379 l 0,-17.60991 0,-20.15791 0,-78.73546 c -13.7267,-2.70045 -31.5064,-3.82154 -42.5329,-3.82154 z m -1.371,23.39601 c 5.8507,0 11.4732,0.22975 16.4238,0.90434 l 0,60.09449 c -6.7508,3.15012 -16.4159,6.30117 -24.0669,6.30117 -10.1237,0 -13.9443,-4.73263 -13.9443,-13.50668 l 0,-33.7521 c 0,-12.82354 3.5851,-20.04122 21.5874,-20.04122 z"
       id="path4071"
       inkscape:connector-curvature="0"
       sodipodi:nodetypes="sssscssccsscccssccssss" />
    <path
       style="fill:#d40000;fill-opacity:1;fill-rule:nonzero;stroke:none"
       d="m 1779.5247,129.98454 23.7325,0.0854 1.7928,12.1437 c 0,0 18.9044,-12.1437 29.9966,-14.70475 1.3922,20.11133 2.358,26.20817 2.358,26.20817 -16.8679,6.90398 -29.879,16.47615 -29.879,16.47615 l 0,73.07553 -28.0009,0 z"
       id="path4073"
       inkscape:connector-curvature="0"
       sodipodi:nodetypes="ccccccccc" />
    <path
       inkscape:connector-curvature="0"
       id="path4075"
       style="fill:#d40000;fill-opacity:1;fill-rule:nonzero;stroke:none"
       d="m 1986.3943,133.91522 0,76.23214 c 0,5.8286 2.4664,8.74434 8.7437,8.74434 6.7271,0 18.6098,-4.03552 28.4759,-9.19235 l 0,-75.78413 27.3533,0 0,109.19231 -20.8519,0 -2.6905,-9.19235 c -13.677,6.72598 -30.9411,11.43344 -43.7216,11.43344 -18.1605,0 -24.663,-12.7785 -24.663,-32.28569 l 0,-79.14771 27.3541,0" />
    <path
       inkscape:connector-curvature="0"
       id="path4077"
       style="fill:#d40000;fill-opacity:1;fill-rule:nonzero;stroke:none"
       d="m 2097.8059,217.08875 c 7.174,1.57119 16.3667,2.91625 24.2141,2.91625 9.8662,0 13.678,-4.71136 13.678,-14.57564 l 0,-38.56366 c 0,-8.97046 -3.364,-13.90184 -13.4523,-13.90184 -8.9705,0 -18.611,4.48523 -24.4398,9.86615 l 0,54.25874 z m 65.2462,-12.33252 c 0,24.21584 -10.7618,38.56535 -36.099,38.56535 -9.6405,0 -20.628,-1.34506 -29.1472,-3.1383 l 0,45.06741 -27.3541,3.81227 0,-157.17492 21.7493,0 2.6904,9.19268 c 9.6406,-6.95007 20.8519,-11.43532 34.5282,-11.43532 21.9732,0 33.6324,13.00447 33.6324,37.89207 l 0,37.21876" />
  </g>
</svg>
